<mxfile host="app.diagrams.net" agent="Mozilla/5.0 (Windows NT 10.0; Win64; x64) AppleWebKit/537.36 (KHTML, like Gecko) Chrome/131.0.0.0 Safari/537.36" version="26.0.4">
  <diagram name="Página-1" id="6CfAAToJpjH09NUW4u3s">
    <mxGraphModel>
      <root>
        <mxCell id="0" />
        <mxCell id="1" parent="0" />
        <mxCell id="2" value="Estrutura do Sistema" style="fillColor=none;strokeColor=none;" vertex="1" parent="1">
          <mxGeometry x="1549" y="8" width="209" height="54" as="geometry" />
        </mxCell>
        <mxCell id="3" value="Autenticação" style="fillColor=none;strokeColor=none;" vertex="1" parent="1">
          <mxGeometry x="308" y="112" width="154" height="54" as="geometry" />
        </mxCell>
        <mxCell id="4" value="Dashboard" style="fillColor=none;strokeColor=none;" vertex="1" parent="1">
          <mxGeometry x="990" y="112" width="134" height="54" as="geometry" />
        </mxCell>
        <mxCell id="5" value="Clientes" style="fillColor=none;strokeColor=none;" vertex="1" parent="1">
          <mxGeometry x="1595" y="112" width="118" height="54" as="geometry" />
        </mxCell>
        <mxCell id="6" value="Pedidos" style="fillColor=none;strokeColor=none;" vertex="1" parent="1">
          <mxGeometry x="2304" y="112" width="114" height="54" as="geometry" />
        </mxCell>
        <mxCell id="7" value="Relatórios" style="fillColor=none;strokeColor=none;" vertex="1" parent="1">
          <mxGeometry x="2998" y="112" width="131" height="54" as="geometry" />
        </mxCell>
        <mxCell id="8" value="Login" style="fillColor=none;strokeColor=none;" vertex="1" parent="1">
          <mxGeometry x="57" y="216" width="98" height="54" as="geometry" />
        </mxCell>
        <mxCell id="9" value="Recuperação de Senha" style="fillColor=none;strokeColor=none;" vertex="1" parent="1">
          <mxGeometry x="275" y="216" width="221" height="54" as="geometry" />
        </mxCell>
        <mxCell id="10" value="Cadastro de Usuário" style="fillColor=none;strokeColor=none;" vertex="1" parent="1">
          <mxGeometry x="577" y="216" width="204" height="54" as="geometry" />
        </mxCell>
        <mxCell id="11" value="Gráficos" style="fillColor=none;strokeColor=none;" vertex="1" parent="1">
          <mxGeometry x="831" y="216" width="119" height="54" as="geometry" />
        </mxCell>
        <mxCell id="12" value="Resumo" style="fillColor=none;strokeColor=none;" vertex="1" parent="1">
          <mxGeometry x="1000" y="216" width="114" height="54" as="geometry" />
        </mxCell>
        <mxCell id="13" value="Alertas" style="fillColor=none;strokeColor=none;" vertex="1" parent="1">
          <mxGeometry x="1164" y="216" width="110" height="54" as="geometry" />
        </mxCell>
        <mxCell id="14" value="Lista de Clientes" style="fillColor=none;strokeColor=none;" vertex="1" parent="1">
          <mxGeometry x="1324" y="216" width="179" height="54" as="geometry" />
        </mxCell>
        <mxCell id="15" value="Detalhes do Cliente" style="fillColor=none;strokeColor=none;" vertex="1" parent="1">
          <mxGeometry x="1554" y="216" width="200" height="54" as="geometry" />
        </mxCell>
        <mxCell id="16" value="Adicionar Cliente" style="fillColor=none;strokeColor=none;" vertex="1" parent="1">
          <mxGeometry x="1804" y="216" width="184" height="54" as="geometry" />
        </mxCell>
        <mxCell id="17" value="Lista de Pedidos" style="fillColor=none;strokeColor=none;" vertex="1" parent="1">
          <mxGeometry x="2038" y="216" width="176" height="54" as="geometry" />
        </mxCell>
        <mxCell id="18" value="Detalhes do Pedido" style="fillColor=none;strokeColor=none;" vertex="1" parent="1">
          <mxGeometry x="2263" y="216" width="197" height="54" as="geometry" />
        </mxCell>
        <mxCell id="19" value="Novo Pedido" style="fillColor=none;strokeColor=none;" vertex="1" parent="1">
          <mxGeometry x="2510" y="216" width="148" height="54" as="geometry" />
        </mxCell>
        <mxCell id="20" value="Relatório de Vendas" style="fillColor=none;strokeColor=none;" vertex="1" parent="1">
          <mxGeometry x="2708" y="216" width="202" height="54" as="geometry" />
        </mxCell>
        <mxCell id="21" value="Relatório de Estoque" style="fillColor=none;strokeColor=none;" vertex="1" parent="1">
          <mxGeometry x="2960" y="216" width="208" height="54" as="geometry" />
        </mxCell>
        <mxCell id="22" value="Relatório Financeiro" style="fillColor=none;strokeColor=none;" vertex="1" parent="1">
          <mxGeometry x="3218" y="216" width="205" height="54" as="geometry" />
        </mxCell>
        <mxCell id="23" value="Validar Credenciais" style="fillColor=none;strokeColor=none;" vertex="1" parent="1">
          <mxGeometry x="8" y="332" width="197" height="54" as="geometry" />
        </mxCell>
        <mxCell id="24" value="Enviar Email de Recuperação" style="fillColor=none;strokeColor=none;" vertex="1" parent="1">
          <mxGeometry x="255" y="320" width="260" height="78" as="geometry" />
        </mxCell>
        <mxCell id="25" value="Formulário de Cadastro" style="fillColor=none;strokeColor=none;" vertex="1" parent="1">
          <mxGeometry x="565" y="332" width="228" height="54" as="geometry" />
        </mxCell>
        <mxCell id="26" value="Filtrar Clientes" style="fillColor=none;strokeColor=none;" vertex="1" parent="1">
          <mxGeometry x="1330" y="332" width="168" height="54" as="geometry" />
        </mxCell>
        <mxCell id="27" value="Filtrar Pedidos" style="fillColor=none;strokeColor=none;" vertex="1" parent="1">
          <mxGeometry x="2043" y="332" width="164" height="54" as="geometry" />
        </mxCell>
        <mxCell id="28" value="" style="curved=1;startArrow=circle;startFill=0;endArrow=circle;endFill=0;exitX=0;exitY=0.58;entryX=0.5;entryY=0;" edge="1" parent="1" source="2" target="3">
          <mxGeometry relative="1" as="geometry">
            <Array as="points">
              <mxPoint x="385" y="87" />
            </Array>
          </mxGeometry>
        </mxCell>
        <mxCell id="29" value="" style="curved=1;startArrow=none;endArrow=circle;endFill=0;exitX=0;exitY=0.67;entryX=0.5;entryY=0;" edge="1" parent="1" source="2" target="4">
          <mxGeometry relative="1" as="geometry">
            <Array as="points">
              <mxPoint x="1057" y="87" />
            </Array>
          </mxGeometry>
        </mxCell>
        <mxCell id="30" value="" style="curved=1;startArrow=none;endArrow=circle;endFill=0;exitX=0.5;exitY=1;entryX=0.5;entryY=0;" edge="1" parent="1" source="2" target="5">
          <mxGeometry relative="1" as="geometry">
            <Array as="points" />
          </mxGeometry>
        </mxCell>
        <mxCell id="31" value="" style="curved=1;startArrow=none;endArrow=circle;endFill=0;exitX=1;exitY=0.64;entryX=0.51;entryY=0;" edge="1" parent="1" source="2" target="6">
          <mxGeometry relative="1" as="geometry">
            <Array as="points">
              <mxPoint x="2362" y="87" />
            </Array>
          </mxGeometry>
        </mxCell>
        <mxCell id="32" value="" style="curved=1;startArrow=none;endArrow=circle;endFill=0;exitX=1;exitY=0.57;entryX=0.5;entryY=0;" edge="1" parent="1" source="2" target="7">
          <mxGeometry relative="1" as="geometry">
            <Array as="points">
              <mxPoint x="3064" y="87" />
            </Array>
          </mxGeometry>
        </mxCell>
        <mxCell id="33" value="" style="curved=1;startArrow=none;endArrow=circle;endFill=0;exitX=0;exitY=0.77;entryX=0.51;entryY=0;" edge="1" parent="1" source="3" target="8">
          <mxGeometry relative="1" as="geometry">
            <Array as="points">
              <mxPoint x="107" y="191" />
            </Array>
          </mxGeometry>
        </mxCell>
        <mxCell id="34" value="" style="curved=1;startArrow=none;endArrow=circle;endFill=0;exitX=0.5;exitY=1;entryX=0.5;entryY=0;" edge="1" parent="1" source="3" target="9">
          <mxGeometry relative="1" as="geometry">
            <Array as="points" />
          </mxGeometry>
        </mxCell>
        <mxCell id="35" value="" style="curved=1;startArrow=none;endArrow=circle;endFill=0;exitX=1;exitY=0.75;entryX=0.5;entryY=0;" edge="1" parent="1" source="3" target="10">
          <mxGeometry relative="1" as="geometry">
            <Array as="points">
              <mxPoint x="679" y="191" />
            </Array>
          </mxGeometry>
        </mxCell>
        <mxCell id="36" value="" style="curved=1;startArrow=none;endArrow=circle;endFill=0;exitX=0;exitY=0.89;entryX=0.5;entryY=0;" edge="1" parent="1" source="4" target="11">
          <mxGeometry relative="1" as="geometry">
            <Array as="points">
              <mxPoint x="890" y="191" />
            </Array>
          </mxGeometry>
        </mxCell>
        <mxCell id="37" value="" style="curved=1;startArrow=none;endArrow=circle;endFill=0;exitX=0.5;exitY=1;entryX=0.5;entryY=0;" edge="1" parent="1" source="4" target="12">
          <mxGeometry relative="1" as="geometry">
            <Array as="points" />
          </mxGeometry>
        </mxCell>
        <mxCell id="38" value="" style="curved=1;startArrow=none;endArrow=circle;endFill=0;exitX=1;exitY=0.9;entryX=0.5;entryY=0;" edge="1" parent="1" source="4" target="13">
          <mxGeometry relative="1" as="geometry">
            <Array as="points">
              <mxPoint x="1219" y="191" />
            </Array>
          </mxGeometry>
        </mxCell>
        <mxCell id="39" value="" style="curved=1;startArrow=none;endArrow=circle;endFill=0;exitX=0;exitY=0.74;entryX=0.5;entryY=0;" edge="1" parent="1" source="5" target="14">
          <mxGeometry relative="1" as="geometry">
            <Array as="points">
              <mxPoint x="1414" y="191" />
            </Array>
          </mxGeometry>
        </mxCell>
        <mxCell id="40" value="" style="curved=1;startArrow=none;endArrow=circle;endFill=0;exitX=0.5;exitY=1;entryX=0.5;entryY=0;" edge="1" parent="1" source="5" target="15">
          <mxGeometry relative="1" as="geometry">
            <Array as="points" />
          </mxGeometry>
        </mxCell>
        <mxCell id="41" value="" style="curved=1;startArrow=none;endArrow=circle;endFill=0;exitX=1;exitY=0.73;entryX=0.5;entryY=0;" edge="1" parent="1" source="5" target="16">
          <mxGeometry relative="1" as="geometry">
            <Array as="points">
              <mxPoint x="1896" y="191" />
            </Array>
          </mxGeometry>
        </mxCell>
        <mxCell id="42" value="" style="curved=1;startArrow=none;endArrow=circle;endFill=0;exitX=0;exitY=0.73;entryX=0.5;entryY=0;" edge="1" parent="1" source="6" target="17">
          <mxGeometry relative="1" as="geometry">
            <Array as="points">
              <mxPoint x="2125" y="191" />
            </Array>
          </mxGeometry>
        </mxCell>
        <mxCell id="43" value="" style="curved=1;startArrow=none;endArrow=circle;endFill=0;exitX=0.51;exitY=1;entryX=0.5;entryY=0;" edge="1" parent="1" source="6" target="18">
          <mxGeometry relative="1" as="geometry">
            <Array as="points" />
          </mxGeometry>
        </mxCell>
        <mxCell id="44" value="" style="curved=1;startArrow=none;endArrow=circle;endFill=0;exitX=1.01;exitY=0.75;entryX=0.5;entryY=0;" edge="1" parent="1" source="6" target="19">
          <mxGeometry relative="1" as="geometry">
            <Array as="points">
              <mxPoint x="2584" y="191" />
            </Array>
          </mxGeometry>
        </mxCell>
        <mxCell id="45" value="" style="curved=1;startArrow=none;endArrow=circle;endFill=0;exitX=0;exitY=0.75;entryX=0.5;entryY=0;" edge="1" parent="1" source="7" target="20">
          <mxGeometry relative="1" as="geometry">
            <Array as="points">
              <mxPoint x="2809" y="191" />
            </Array>
          </mxGeometry>
        </mxCell>
        <mxCell id="46" value="" style="curved=1;startArrow=none;endArrow=circle;endFill=0;exitX=0.5;exitY=1;entryX=0.5;entryY=0;" edge="1" parent="1" source="7" target="21">
          <mxGeometry relative="1" as="geometry">
            <Array as="points" />
          </mxGeometry>
        </mxCell>
        <mxCell id="47" value="" style="curved=1;startArrow=none;endArrow=circle;endFill=0;exitX=1;exitY=0.75;entryX=0.5;entryY=0;" edge="1" parent="1" source="7" target="22">
          <mxGeometry relative="1" as="geometry">
            <Array as="points">
              <mxPoint x="3320" y="191" />
            </Array>
          </mxGeometry>
        </mxCell>
        <mxCell id="48" value="" style="curved=1;startArrow=none;endArrow=circle;endFill=0;exitX=0.51;exitY=1;entryX=0.5;entryY=0;" edge="1" parent="1" source="8" target="23">
          <mxGeometry relative="1" as="geometry">
            <Array as="points" />
          </mxGeometry>
        </mxCell>
        <mxCell id="49" value="" style="curved=1;startArrow=none;endArrow=circle;endFill=0;exitX=0.5;exitY=1;entryX=0.5;entryY=0;" edge="1" parent="1" source="9" target="24">
          <mxGeometry relative="1" as="geometry">
            <Array as="points" />
          </mxGeometry>
        </mxCell>
        <mxCell id="50" value="" style="curved=1;startArrow=none;endArrow=circle;endFill=0;exitX=0.5;exitY=1;entryX=0.5;entryY=0;" edge="1" parent="1" source="10" target="25">
          <mxGeometry relative="1" as="geometry">
            <Array as="points" />
          </mxGeometry>
        </mxCell>
        <mxCell id="51" value="" style="curved=1;startArrow=none;endArrow=circle;endFill=0;exitX=0.5;exitY=1;entryX=0.5;entryY=0;" edge="1" parent="1" source="14" target="26">
          <mxGeometry relative="1" as="geometry">
            <Array as="points" />
          </mxGeometry>
        </mxCell>
        <mxCell id="52" value="" style="curved=1;startArrow=none;endArrow=circle;endFill=0;exitX=0.5;exitY=1;entryX=0.5;entryY=0;" edge="1" parent="1" source="17" target="27">
          <mxGeometry relative="1" as="geometry">
            <Array as="points" />
          </mxGeometry>
        </mxCell>
      </root>
    </mxGraphModel>
  </diagram>
</mxfile>
